<svg width="167" height="167" viewBox="0 0 167 167" fill="none" xmlns="http://www.w3.org/2000/svg">
<circle cx="84" cy="83" r="31" fill="#F4F7FB"/>
<path d="M121 0C146.405 0 167 20.5949 167 46C167 61.473 159.36 75.1618 147.647 83.5C159.36 91.8382 167 105.527 167 121C167 146.405 146.405 167 121 167C105.527 167 91.8382 159.36 83.5 147.647C75.1618 159.36 61.473 167 46 167C20.5949 167 0 146.405 0 121C0 105.527 7.63895 91.8383 19.3516 83.5C7.63895 75.1617 0 61.4727 0 46C0 20.5949 20.5949 0 46 0C61.4727 0 75.1617 7.63895 83.5 19.3516C91.8383 7.63895 105.527 0 121 0ZM83.5 72C77.1487 72 72 77.1487 72 83.5C72 89.8513 77.1487 95 83.5 95C89.8513 95 95 89.8513 95 83.5C95 77.1487 89.8513 72 83.5 72ZM83.5 72.6475C86.4859 76.8418 90.1583 80.5131 94.3525 83.499C90.1581 86.4849 86.486 90.1572 83.5 94.3516C80.5139 90.157 76.8412 86.485 72.6465 83.499C76.841 80.513 80.514 76.842 83.5 72.6475Z" fill="url(#paint0_linear_602_10)"/>
<path d="M83.5 95C88.8526 102.519 92 111.716 92 121.648C92 131.581 88.8523 140.777 83.5 148.296C78.1477 140.777 75 131.581 75 121.648C75 111.716 78.1474 102.519 83.5 95ZM45.6484 75C55.5805 75 64.7774 78.1477 72.2959 83.5C64.7774 88.8523 55.5805 92 45.6484 92C35.7161 92 26.5186 88.8526 19 83.5C26.5186 78.1474 35.7161 75 45.6484 75ZM121.648 75C131.581 75 140.777 78.1477 148.296 83.5C140.777 88.8523 131.581 92 121.648 92C111.716 92 102.519 88.8526 95 83.5C102.519 78.1474 111.716 75 121.648 75ZM83.5 17C88.8526 24.5186 92 33.7161 92 43.6484C92 53.5805 88.8523 62.7774 83.5 70.2959C78.1477 62.7774 75 53.5805 75 43.6484C75 33.7161 78.1474 24.5186 83.5 17Z" fill="#F4F7FB"/>
<defs>
<linearGradient id="paint0_linear_602_10" x1="167" y1="131.188" x2="-4.12069e-06" y2="35.8123" gradientUnits="userSpaceOnUse">
<stop offset="0.0625" stop-color="#A0D137"/>
<stop offset="0.269231" stop-color="#058457"/>
<stop offset="0.485577" stop-color="#057E84"/>
<stop offset="0.721154" stop-color="#044CAA"/>
<stop offset="0.932692" stop-color="#4404AA"/>
</linearGradient>
</defs>
</svg>
