<?xml version="1.0" encoding="UTF-8"?>
<svg version="1.1" xmlns="http://www.w3.org/2000/svg" width="752" height="737">
<path d="M0,0 L11,0 L11,1 L14,1 L14,2 L17,2 L17,3 L19,3 L19,4 L21,4 L21,5 L23,5 L23,6 L24,6 L24,7 L26,7 L26,8 L27,8 L27,9 L28,9 L28,10 L29,10 L29,11 L30,11 L30,12 L31,12 L31,13 L32,13 L32,14 L33,14 L33,15 L34,15 L34,16 L35,16 L35,17 L36,17 L36,18 L37,18 L37,20 L38,20 L38,21 L39,21 L39,23 L40,23 L40,25 L41,25 L41,27 L42,27 L42,28 L43,28 L43,30 L44,30 L44,34 L45,34 L45,35 L46,35 L46,39 L47,39 L47,41 L48,41 L48,46 L49,46 L49,48 L50,48 L50,58 L51,58 L51,89 L50,89 L50,95 L49,95 L49,97 L48,97 L48,101 L47,101 L47,103 L46,103 L46,106 L45,106 L45,109 L44,109 L44,113 L43,113 L43,114 L42,114 L42,116 L41,116 L41,118 L40,118 L40,119 L39,119 L39,121 L38,121 L38,123 L37,123 L37,124 L36,124 L36,126 L35,126 L35,127 L34,127 L34,128 L33,128 L33,129 L32,129 L32,130 L31,130 L31,131 L30,131 L30,132 L29,132 L29,133 L28,133 L28,134 L27,134 L27,135 L26,135 L26,136 L24,136 L24,137 L23,137 L23,138 L21,138 L21,139 L19,139 L19,140 L17,140 L17,141 L14,141 L14,142 L11,142 L11,143 L0,143 L0,142 L-3,142 L-3,141 L-5,141 L-5,140 L-7,140 L-7,139 L-9,139 L-9,138 L-11,138 L-11,137 L-13,137 L-13,136 L-14,136 L-14,135 L-15,135 L-15,134 L-16,134 L-16,133 L-17,133 L-17,132 L-18,132 L-18,131 L-19,131 L-19,130 L-20,130 L-20,129 L-21,129 L-21,128 L-22,128 L-22,126 L-23,126 L-23,125 L-24,125 L-24,124 L-25,124 L-25,123 L-26,123 L-26,121 L-27,121 L-27,119 L-28,119 L-28,117 L-29,117 L-29,115 L-30,115 L-30,114 L-31,114 L-31,111 L-32,111 L-32,109 L-33,109 L-33,106 L-34,106 L-34,102 L-35,102 L-35,99 L-36,99 L-36,95 L-37,95 L-37,92 L-38,92 L-38,88 L-39,88 L-39,55 L-38,55 L-38,50 L-37,50 L-37,46 L-36,46 L-36,41 L-35,41 L-35,38 L-34,38 L-34,36 L-33,36 L-33,34 L-32,34 L-32,31 L-31,31 L-31,30 L-30,30 L-30,27 L-29,27 L-29,25 L-28,25 L-28,23 L-27,23 L-27,21 L-26,21 L-26,20 L-25,20 L-25,19 L-24,19 L-24,18 L-23,18 L-23,16 L-22,16 L-22,15 L-21,15 L-21,14 L-20,14 L-20,13 L-19,13 L-19,12 L-18,12 L-18,11 L-17,11 L-17,10 L-16,10 L-16,9 L-15,9 L-15,8 L-14,8 L-14,7 L-13,7 L-13,6 L-11,6 L-11,5 L-9,5 L-9,4 L-7,4 L-7,3 L-5,3 L-5,2 L-3,2 L-3,1 L0,1 Z M-20,41 L-20,43 L-24,43 L-24,44 L-25,44 L-25,45 L-26,45 L-26,46 L-27,46 L-27,47 L-28,47 L-28,48 L-29,48 L-29,49 L-30,49 L-30,50 L-31,50 L-31,51 L-32,51 L-32,53 L-33,53 L-33,55 L-34,55 L-34,58 L-35,58 L-35,59 L-36,59 L-36,63 L-37,63 L-37,78 L-36,78 L-36,84 L-35,84 L-35,88 L-34,88 L-34,89 L-33,89 L-33,91 L-32,91 L-32,93 L-31,93 L-31,94 L-30,94 L-30,95 L-29,95 L-29,96 L-28,96 L-28,98 L-27,98 L-27,99 L-26,99 L-26,100 L-24,100 L-24,101 L-23,101 L-23,102 L-19,102 L-19,103 L-10,103 L-10,102 L-7,102 L-7,101 L-5,101 L-5,100 L-3,100 L-3,99 L-2,99 L-2,98 L-1,98 L-1,97 L0,97 L0,96 L1,96 L1,94 L2,94 L2,93 L3,93 L3,91 L4,91 L4,90 L5,90 L5,87 L6,87 L6,84 L7,84 L7,82 L8,82 L8,64 L5,64 L5,65 L3,65 L3,66 L-8,66 L-8,65 L-9,65 L-9,64 L-10,64 L-10,62 L-11,62 L-11,60 L-12,60 L-12,52 L-11,52 L-11,50 L-10,50 L-10,48 L-9,48 L-9,47 L-8,47 L-8,46 L-7,46 L-7,45 L-6,45 L-6,43 L-8,43 L-8,42 L-11,42 L-11,41 Z " fill="#F8F8F8" transform="translate(317,297)"/>
<path d="M0,0 L11,0 L11,1 L14,1 L14,2 L17,2 L17,3 L19,3 L19,4 L21,4 L21,5 L23,5 L23,6 L24,6 L24,7 L25,7 L25,8 L27,8 L27,9 L28,9 L28,10 L29,10 L29,11 L30,11 L30,12 L31,12 L31,13 L32,13 L32,14 L33,14 L33,15 L34,15 L34,16 L35,16 L35,18 L36,18 L36,19 L37,19 L37,20 L38,20 L38,22 L39,22 L39,23 L40,23 L40,25 L41,25 L41,28 L42,28 L42,29 L43,29 L43,31 L44,31 L44,33 L45,33 L45,36 L46,36 L46,38 L47,38 L47,42 L48,42 L48,45 L49,45 L49,49 L50,49 L50,55 L51,55 L51,87 L50,87 L50,92 L49,92 L49,95 L48,95 L48,101 L47,101 L47,104 L46,104 L46,107 L45,107 L45,109 L44,109 L44,111 L43,111 L43,113 L42,113 L42,115 L41,115 L41,117 L40,117 L40,119 L39,119 L39,121 L38,121 L38,123 L37,123 L37,124 L36,124 L36,125 L35,125 L35,126 L34,126 L34,128 L33,128 L33,129 L32,129 L32,130 L31,130 L31,131 L30,131 L30,132 L29,132 L29,133 L28,133 L28,134 L27,134 L27,135 L26,135 L26,136 L24,136 L24,137 L23,137 L23,138 L21,138 L21,139 L19,139 L19,140 L17,140 L17,141 L14,141 L14,142 L11,142 L11,143 L0,143 L0,142 L-3,142 L-3,141 L-5,141 L-5,140 L-7,140 L-7,139 L-9,139 L-9,138 L-11,138 L-11,137 L-13,137 L-13,136 L-14,136 L-14,135 L-15,135 L-15,134 L-16,134 L-16,133 L-17,133 L-17,132 L-18,132 L-18,131 L-19,131 L-19,130 L-20,130 L-20,129 L-21,129 L-21,128 L-22,128 L-22,127 L-23,127 L-23,126 L-24,126 L-24,124 L-25,124 L-25,123 L-26,123 L-26,121 L-27,121 L-27,119 L-28,119 L-28,118 L-29,118 L-29,116 L-30,116 L-30,115 L-31,115 L-31,111 L-32,111 L-32,109 L-33,109 L-33,106 L-34,106 L-34,104 L-35,104 L-35,101 L-36,101 L-36,97 L-37,97 L-37,95 L-38,95 L-38,81 L-36,81 L-36,84 L-35,84 L-35,87 L-34,87 L-34,89 L-33,89 L-33,91 L-32,91 L-32,93 L-31,93 L-31,94 L-30,94 L-30,96 L-29,96 L-29,97 L-28,97 L-28,98 L-27,98 L-27,99 L-26,99 L-26,100 L-24,100 L-24,101 L-22,101 L-22,102 L-19,102 L-19,103 L-10,103 L-10,102 L-7,102 L-7,101 L-5,101 L-5,100 L-4,100 L-4,99 L-2,99 L-2,98 L-1,98 L-1,97 L0,97 L0,96 L1,96 L1,94 L2,94 L2,93 L3,93 L3,91 L4,91 L4,89 L5,89 L5,86 L6,86 L6,83 L7,83 L7,81 L8,81 L8,64 L5,64 L5,65 L4,65 L4,66 L-8,66 L-8,65 L-9,65 L-9,63 L-10,63 L-10,62 L-11,62 L-11,60 L-12,60 L-12,53 L-11,53 L-11,51 L-10,51 L-10,48 L-9,48 L-9,46 L-8,46 L-8,45 L-7,45 L-7,44 L-6,44 L-6,42 L-9,42 L-9,41 L-20,41 L-20,42 L-22,42 L-22,43 L-24,43 L-24,44 L-25,44 L-25,45 L-26,45 L-26,46 L-27,46 L-27,47 L-28,47 L-28,48 L-29,48 L-29,49 L-30,49 L-30,50 L-31,50 L-31,51 L-32,51 L-32,53 L-33,53 L-33,55 L-34,55 L-34,57 L-35,57 L-35,60 L-36,60 L-36,62 L-38,62 L-38,52 L-37,52 L-37,46 L-36,46 L-36,42 L-35,42 L-35,39 L-34,39 L-34,36 L-33,36 L-33,34 L-32,34 L-32,32 L-31,32 L-31,30 L-30,30 L-30,26 L-29,26 L-29,25 L-28,25 L-28,23 L-27,23 L-27,22 L-26,22 L-26,20 L-25,20 L-25,18 L-24,18 L-24,17 L-23,17 L-23,16 L-22,16 L-22,15 L-21,15 L-21,14 L-20,14 L-20,12 L-19,12 L-19,11 L-17,11 L-17,10 L-16,10 L-16,9 L-15,9 L-15,8 L-14,8 L-14,7 L-13,7 L-13,6 L-11,6 L-11,5 L-9,5 L-9,4 L-7,4 L-7,3 L-5,3 L-5,2 L-3,2 L-3,1 L0,1 Z " fill="#F8F8F8" transform="translate(422,297)"/>
<path d="M0,0 L18,0 L18,1 L21,1 L21,2 L26,2 L26,3 L27,3 L27,4 L29,4 L29,5 L30,5 L30,6 L32,6 L32,7 L33,7 L33,8 L34,8 L34,9 L36,9 L36,10 L37,10 L37,11 L38,11 L38,12 L39,12 L39,13 L40,13 L40,14 L41,14 L41,15 L42,15 L42,16 L43,16 L43,17 L44,17 L44,19 L45,19 L45,20 L46,20 L46,22 L47,22 L47,23 L48,23 L48,24 L49,24 L49,25 L50,25 L50,27 L51,27 L51,31 L52,31 L52,32 L53,32 L53,34 L54,34 L54,36 L55,36 L55,39 L56,39 L56,40 L57,40 L57,43 L58,43 L58,49 L59,49 L59,53 L60,53 L60,57 L61,57 L61,61 L62,61 L62,56 L63,56 L63,53 L64,53 L64,49 L65,49 L65,43 L66,43 L66,40 L67,40 L67,39 L68,39 L68,36 L69,36 L69,34 L70,34 L70,32 L71,32 L71,31 L72,31 L72,29 L73,29 L73,26 L74,26 L74,24 L75,24 L75,23 L76,23 L76,22 L77,22 L77,20 L78,20 L78,19 L79,19 L79,18 L80,18 L80,16 L81,16 L81,15 L82,15 L82,14 L83,14 L83,13 L84,13 L84,12 L85,12 L85,11 L86,11 L86,10 L87,10 L87,9 L89,9 L89,8 L90,8 L90,7 L91,7 L91,6 L93,6 L93,5 L94,5 L94,4 L95,4 L95,3 L97,3 L97,2 L102,2 L102,1 L105,1 L105,0 L123,0 L123,1 L126,1 L126,2 L130,2 L130,3 L132,3 L132,4 L134,4 L134,5 L135,5 L135,6 L137,6 L137,7 L138,7 L138,8 L139,8 L139,9 L140,9 L140,10 L142,10 L142,11 L143,11 L143,12 L144,12 L144,13 L145,13 L145,15 L146,15 L146,16 L147,16 L147,17 L149,17 L149,18 L150,18 L150,20 L151,20 L151,21 L152,21 L152,24 L153,24 L153,25 L154,25 L154,26 L155,26 L155,28 L156,28 L156,30 L157,30 L157,31 L158,31 L158,33 L159,33 L159,35 L160,35 L160,39 L161,39 L161,42 L162,42 L162,45 L163,45 L163,47 L164,47 L164,51 L165,51 L165,55 L166,55 L166,60 L167,60 L167,97 L166,97 L166,102 L165,102 L165,106 L164,106 L164,109 L163,109 L163,112 L162,112 L162,115 L161,115 L161,118 L160,118 L160,122 L159,122 L159,124 L158,124 L158,126 L157,126 L157,127 L156,127 L156,129 L155,129 L155,131 L154,131 L154,132 L153,132 L153,133 L152,133 L152,136 L151,136 L151,137 L150,137 L150,138 L149,138 L149,140 L147,140 L147,141 L146,141 L146,142 L145,142 L145,144 L144,144 L144,145 L143,145 L143,146 L142,146 L142,147 L140,147 L140,148 L139,148 L139,149 L138,149 L138,150 L137,150 L137,151 L135,151 L135,152 L134,152 L134,153 L132,153 L132,154 L130,154 L130,155 L126,155 L126,156 L123,156 L123,157 L105,157 L105,156 L102,156 L102,155 L98,155 L98,154 L96,154 L96,153 L94,153 L94,152 L93,152 L93,151 L92,151 L92,150 L90,150 L90,149 L89,149 L89,148 L87,148 L87,147 L86,147 L86,146 L85,146 L85,145 L84,145 L84,144 L83,144 L83,143 L82,143 L82,142 L81,142 L81,141 L80,141 L80,139 L79,139 L79,138 L78,138 L78,137 L77,137 L77,135 L76,135 L76,134 L75,134 L75,132 L73,132 L73,128 L72,128 L72,126 L71,126 L71,125 L70,125 L70,123 L69,123 L69,121 L68,121 L68,118 L67,118 L67,117 L66,117 L66,114 L65,114 L65,108 L64,108 L64,104 L63,104 L63,100 L62,100 L62,95 L61,95 L61,100 L60,100 L60,104 L59,104 L59,108 L58,108 L58,114 L57,114 L57,117 L56,117 L56,118 L55,118 L55,121 L54,121 L54,123 L53,123 L53,125 L52,125 L52,126 L51,126 L51,130 L50,130 L50,132 L49,132 L49,133 L48,133 L48,134 L47,134 L47,135 L46,135 L46,137 L45,137 L45,138 L44,138 L44,140 L43,140 L43,141 L42,141 L42,142 L41,142 L41,143 L40,143 L40,144 L39,144 L39,145 L38,145 L38,146 L37,146 L37,147 L36,147 L36,148 L34,148 L34,149 L33,149 L33,150 L32,150 L32,151 L30,151 L30,152 L29,152 L29,153 L27,153 L27,154 L25,154 L25,155 L21,155 L21,156 L18,156 L18,157 L0,157 L0,156 L-3,156 L-3,155 L-7,155 L-7,154 L-9,154 L-9,153 L-11,153 L-11,152 L-12,152 L-12,151 L-14,151 L-14,149 L-16,149 L-16,148 L-17,148 L-17,147 L-19,147 L-19,146 L-20,146 L-20,145 L-21,145 L-21,144 L-22,144 L-22,142 L-23,142 L-23,141 L-24,141 L-24,140 L-26,140 L-26,138 L-27,138 L-27,137 L-28,137 L-28,136 L-29,136 L-29,133 L-30,133 L-30,132 L-31,132 L-31,131 L-32,131 L-32,129 L-33,129 L-33,127 L-34,127 L-34,125 L-35,125 L-35,124 L-36,124 L-36,119 L-37,119 L-37,118 L-38,118 L-38,115 L-39,115 L-39,112 L-40,112 L-40,109 L-41,109 L-41,105 L-42,105 L-42,102 L-43,102 L-43,90 L-44,90 L-44,67 L-43,67 L-43,55 L-42,55 L-42,51 L-41,51 L-41,47 L-40,47 L-40,45 L-39,45 L-39,42 L-38,42 L-38,39 L-37,39 L-37,38 L-36,38 L-36,33 L-35,33 L-35,31 L-34,31 L-34,30 L-33,30 L-33,28 L-32,28 L-32,26 L-31,26 L-31,25 L-30,25 L-30,24 L-29,24 L-29,21 L-28,21 L-28,20 L-27,20 L-27,19 L-26,19 L-26,17 L-24,17 L-24,16 L-23,16 L-23,15 L-22,15 L-22,13 L-21,13 L-21,12 L-20,12 L-20,11 L-19,11 L-19,10 L-17,10 L-17,9 L-16,9 L-16,8 L-14,8 L-14,6 L-12,6 L-12,5 L-11,5 L-11,4 L-9,4 L-9,3 L-7,3 L-7,2 L-3,2 L-3,1 L0,1 Z M3,7 L3,8 L0,8 L0,9 L-2,9 L-2,10 L-4,10 L-4,11 L-6,11 L-6,12 L-8,12 L-8,13 L-10,13 L-10,14 L-11,14 L-11,15 L-12,15 L-12,16 L-13,16 L-13,17 L-14,17 L-14,18 L-15,18 L-15,19 L-16,19 L-16,20 L-17,20 L-17,21 L-18,21 L-18,22 L-19,22 L-19,23 L-20,23 L-20,25 L-21,25 L-21,26 L-22,26 L-22,27 L-23,27 L-23,28 L-24,28 L-24,30 L-25,30 L-25,32 L-26,32 L-26,34 L-27,34 L-27,37 L-28,37 L-28,38 L-29,38 L-29,41 L-30,41 L-30,43 L-31,43 L-31,45 L-32,45 L-32,48 L-33,48 L-33,53 L-34,53 L-34,57 L-35,57 L-35,62 L-36,62 L-36,95 L-35,95 L-35,99 L-34,99 L-34,102 L-33,102 L-33,106 L-32,106 L-32,109 L-31,109 L-31,113 L-30,113 L-30,116 L-29,116 L-29,118 L-28,118 L-28,121 L-27,121 L-27,122 L-26,122 L-26,124 L-25,124 L-25,126 L-24,126 L-24,128 L-23,128 L-23,130 L-22,130 L-22,131 L-21,131 L-21,132 L-20,132 L-20,133 L-19,133 L-19,135 L-18,135 L-18,136 L-17,136 L-17,137 L-16,137 L-16,138 L-15,138 L-15,139 L-14,139 L-14,140 L-13,140 L-13,141 L-12,141 L-12,142 L-11,142 L-11,143 L-10,143 L-10,144 L-8,144 L-8,145 L-6,145 L-6,146 L-4,146 L-4,147 L-2,147 L-2,148 L0,148 L0,149 L3,149 L3,150 L14,150 L14,149 L17,149 L17,148 L20,148 L20,147 L22,147 L22,146 L24,146 L24,145 L26,145 L26,144 L27,144 L27,143 L29,143 L29,142 L30,142 L30,141 L31,141 L31,140 L32,140 L32,139 L33,139 L33,138 L34,138 L34,137 L35,137 L35,136 L36,136 L36,135 L37,135 L37,134 L38,134 L38,133 L39,133 L39,131 L40,131 L40,130 L41,130 L41,128 L42,128 L42,126 L43,126 L43,125 L44,125 L44,123 L45,123 L45,121 L46,121 L46,120 L47,120 L47,116 L48,116 L48,113 L49,113 L49,110 L50,110 L50,108 L51,108 L51,104 L52,104 L52,102 L53,102 L53,96 L54,96 L54,65 L53,65 L53,55 L52,55 L52,53 L51,53 L51,48 L50,48 L50,46 L49,46 L49,42 L48,42 L48,41 L47,41 L47,37 L46,37 L46,35 L45,35 L45,34 L44,34 L44,32 L43,32 L43,30 L42,30 L42,28 L41,28 L41,27 L40,27 L40,25 L39,25 L39,24 L38,24 L38,23 L37,23 L37,22 L36,22 L36,21 L35,21 L35,20 L34,20 L34,19 L33,19 L33,18 L32,18 L32,17 L31,17 L31,16 L30,16 L30,15 L29,15 L29,14 L27,14 L27,13 L26,13 L26,12 L24,12 L24,11 L22,11 L22,10 L20,10 L20,9 L17,9 L17,8 L14,8 L14,7 Z M108,7 L108,8 L105,8 L105,9 L103,9 L103,10 L101,10 L101,11 L99,11 L99,12 L97,12 L97,13 L95,13 L95,14 L94,14 L94,15 L93,15 L93,16 L92,16 L92,17 L91,17 L91,18 L89,18 L89,19 L88,19 L88,21 L87,21 L87,22 L86,22 L86,23 L85,23 L85,24 L84,24 L84,25 L83,25 L83,27 L82,27 L82,29 L81,29 L81,30 L80,30 L80,32 L79,32 L79,33 L78,33 L78,37 L77,37 L77,39 L76,39 L76,41 L75,41 L75,43 L74,43 L74,46 L73,46 L73,49 L72,49 L72,53 L71,53 L71,59 L70,59 L70,63 L69,63 L69,68 L68,68 L68,89 L69,89 L69,94 L70,94 L70,102 L71,102 L71,104 L72,104 L72,108 L73,108 L73,111 L74,111 L74,113 L75,113 L75,116 L76,116 L76,118 L77,118 L77,122 L78,122 L78,123 L79,123 L79,125 L80,125 L80,126 L81,126 L81,128 L82,128 L82,130 L83,130 L83,131 L84,131 L84,133 L85,133 L85,134 L86,134 L86,135 L87,135 L87,136 L88,136 L88,137 L89,137 L89,138 L90,138 L90,139 L91,139 L91,140 L92,140 L92,141 L93,141 L93,142 L94,142 L94,143 L95,143 L95,144 L97,144 L97,145 L99,145 L99,146 L101,146 L101,147 L103,147 L103,148 L105,148 L105,149 L108,149 L108,150 L119,150 L119,149 L122,149 L122,148 L125,148 L125,147 L127,147 L127,146 L129,146 L129,145 L131,145 L131,144 L132,144 L132,143 L134,143 L134,142 L135,142 L135,141 L136,141 L136,140 L137,140 L137,139 L138,139 L138,138 L139,138 L139,137 L140,137 L140,136 L141,136 L141,135 L142,135 L142,133 L143,133 L143,132 L144,132 L144,131 L145,131 L145,130 L146,130 L146,128 L147,128 L147,126 L148,126 L148,124 L149,124 L149,122 L150,122 L150,120 L151,120 L151,118 L152,118 L152,116 L153,116 L153,114 L154,114 L154,111 L155,111 L155,108 L156,108 L156,102 L157,102 L157,99 L158,99 L158,94 L159,94 L159,62 L158,62 L158,56 L157,56 L157,52 L156,52 L156,49 L155,49 L155,45 L154,45 L154,43 L153,43 L153,40 L152,40 L152,38 L151,38 L151,36 L150,36 L150,35 L149,35 L149,32 L148,32 L148,30 L147,30 L147,29 L146,29 L146,27 L145,27 L145,26 L144,26 L144,25 L143,25 L143,23 L142,23 L142,22 L141,22 L141,21 L140,21 L140,20 L139,20 L139,19 L138,19 L138,18 L137,18 L137,17 L136,17 L136,16 L135,16 L135,15 L133,15 L133,14 L132,14 L132,13 L131,13 L131,12 L129,12 L129,11 L127,11 L127,10 L125,10 L125,9 L122,9 L122,8 L119,8 L119,7 Z " fill="#B3C0C7" transform="translate(314,290)"/>
<path d="M0,0 L11,0 L11,1 L14,1 L14,3 L13,3 L13,4 L12,4 L12,5 L11,5 L11,7 L10,7 L10,10 L9,10 L9,12 L8,12 L8,19 L9,19 L9,21 L10,21 L10,22 L11,22 L11,24 L12,24 L12,25 L24,25 L24,24 L25,24 L25,23 L28,23 L28,40 L27,40 L27,42 L26,42 L26,45 L25,45 L25,48 L24,48 L24,50 L23,50 L23,52 L22,52 L22,53 L21,53 L21,55 L20,55 L20,56 L19,56 L19,57 L18,57 L18,58 L16,58 L16,59 L15,59 L15,60 L13,60 L13,61 L10,61 L10,62 L1,62 L1,61 L-2,61 L-2,60 L-4,60 L-4,59 L-6,59 L-6,58 L-7,58 L-7,57 L-8,57 L-8,56 L-9,56 L-9,55 L-10,55 L-10,53 L-11,53 L-11,52 L-12,52 L-12,50 L-13,50 L-13,48 L-14,48 L-14,46 L-15,46 L-15,43 L-16,43 L-16,40 L-17,40 L-17,23 L-16,23 L-16,19 L-15,19 L-15,16 L-14,16 L-14,14 L-13,14 L-13,12 L-12,12 L-12,10 L-11,10 L-11,9 L-10,9 L-10,8 L-9,8 L-9,7 L-8,7 L-8,6 L-7,6 L-7,5 L-6,5 L-6,4 L-5,4 L-5,3 L-4,3 L-4,2 L-2,2 L-2,1 L0,1 Z " fill="#333333" transform="translate(402,338)"/>
<path d="M0,0 L9,0 L9,1 L12,1 L12,2 L14,2 L14,4 L13,4 L13,5 L12,5 L12,6 L11,6 L11,7 L10,7 L10,9 L9,9 L9,11 L8,11 L8,19 L9,19 L9,21 L10,21 L10,23 L11,23 L11,24 L12,24 L12,25 L23,25 L23,24 L25,24 L25,23 L28,23 L28,41 L27,41 L27,43 L26,43 L26,46 L25,46 L25,49 L24,49 L24,50 L23,50 L23,52 L22,52 L22,53 L21,53 L21,55 L20,55 L20,56 L19,56 L19,57 L18,57 L18,58 L17,58 L17,59 L15,59 L15,60 L13,60 L13,61 L10,61 L10,62 L1,62 L1,61 L-3,61 L-3,60 L-4,60 L-4,59 L-6,59 L-6,58 L-7,58 L-7,57 L-8,57 L-8,55 L-9,55 L-9,54 L-10,54 L-10,53 L-11,53 L-11,52 L-12,52 L-12,50 L-13,50 L-13,48 L-14,48 L-14,47 L-15,47 L-15,43 L-16,43 L-16,37 L-17,37 L-17,22 L-16,22 L-16,18 L-15,18 L-15,17 L-14,17 L-14,14 L-13,14 L-13,12 L-12,12 L-12,10 L-11,10 L-11,9 L-10,9 L-10,8 L-9,8 L-9,7 L-8,7 L-8,6 L-7,6 L-7,5 L-6,5 L-6,4 L-5,4 L-5,3 L-4,3 L-4,2 L0,2 Z " fill="#333333" transform="translate(297,338)"/>
<path d="M0,0 L1,0 L1,6 L3,6 L3,8 L2,8 L2,25 L1,25 L1,31 L0,31 L0,26 L-1,26 L-1,5 L0,5 Z " fill="#E0E2E4" transform="translate(383,353)"/>
</svg>
