<svg width="167" height="167" viewBox="0 0 167 167" fill="none" xmlns="http://www.w3.org/2000/svg">
<path d="M121 0C146.405 0 167 20.5949 167 46C167 61.473 159.36 75.1618 147.647 83.5C159.36 91.8382 167 105.527 167 121C167 146.405 146.405 167 121 167C105.527 167 91.8382 159.36 83.5 147.647C75.1618 159.36 61.473 167 46 167C20.5949 167 0 146.405 0 121C0 105.527 7.63895 91.8383 19.3516 83.5C7.63895 75.1617 0 61.4727 0 46C0 20.5949 20.5949 0 46 0C61.4727 0 75.1617 7.63895 83.5 19.3516C91.8383 7.63895 105.527 0 121 0ZM83.5 72C77.1487 72 72 77.1487 72 83.5C72 89.8513 77.1487 95 83.5 95C89.8513 95 95 89.8513 95 83.5C95 77.1487 89.8513 72 83.5 72ZM83.5 72.6475C86.4859 76.8418 90.1583 80.5131 94.3525 83.499C90.1581 86.4849 86.486 90.1572 83.5 94.3516C80.5139 90.157 76.8412 86.485 72.6465 83.499C76.841 80.513 80.514 76.842 83.5 72.6475Z" fill="url(#paint0_linear_601_49)"/>
<defs>
<linearGradient id="paint0_linear_601_49" x1="2.70832e-06" y1="131.697" x2="167" y2="35.303" gradientUnits="userSpaceOnUse">
<stop offset="0.0625" stop-color="#A0D137"/>
<stop offset="0.269231" stop-color="#058457"/>
<stop offset="0.485577" stop-color="#057E84"/>
<stop offset="0.721154" stop-color="#044CAA"/>
<stop offset="0.932692" stop-color="#4404AA"/>
</linearGradient>
</defs>
</svg>
